<svg width="21" height="16" viewBox="0 0 21 16" fill="none" xmlns="http://www.w3.org/2000/svg">
<path d="M10.6831 15.0416C8.62596 15.0416 6.85542 14.3377 5.37147 12.9299C3.88752 11.5221 3.14555 9.84246 3.14555 7.89092V6.88535L1.26117 8.67303L0.342529 7.80154L3.85219 4.472L7.36185 7.80154L6.44321 8.67303L4.55883 6.88535V7.89092C4.55883 9.48493 5.15948 10.8517 6.36077 11.9914C7.56207 13.131 9.00283 13.7009 10.6831 13.7009C11.1385 13.7009 11.5703 13.6636 11.9786 13.5891C12.3869 13.5146 12.7716 13.4029 13.1328 13.2539L14.1456 14.2148C13.5803 14.5128 13.0111 14.725 12.4379 14.8517C11.8647 14.9783 11.2798 15.0416 10.6831 15.0416ZM17.4904 11.2651L13.9807 7.93561L14.9229 7.04178L16.7838 8.8071V7.89092C16.7838 6.29691 16.1831 4.93009 14.9818 3.79045C13.7805 2.65081 12.3398 2.08099 10.6595 2.08099C10.2041 2.08099 9.77229 2.12196 9.36401 2.20389C8.95572 2.28583 8.571 2.38638 8.20982 2.50556L7.19697 1.54469C7.76228 1.24674 8.33152 1.03818 8.90469 0.919001C9.47785 0.799823 10.0628 0.740234 10.6595 0.740234C12.7166 0.740234 14.4872 1.44413 15.9711 2.85192C17.4551 4.25971 18.197 5.93938 18.197 7.89092V8.85179L20.0814 7.06412L21.0001 7.93561L17.4904 11.2651Z" fill="#313131"/>
</svg>
